<svg width="888" height="684" viewBox="0 0 888 684" fill="none" xmlns="http://www.w3.org/2000/svg">
<g clip-path="url(#clip0)">
<path opacity="0.1" d="M704.321 562.118C717.272 568.664 733.112 564.683 747.827 565.144C749.842 565.209 751.971 565.403 753.59 566.528C755.209 567.652 756.018 569.497 757.111 571.067C761.231 576.9 769.681 578.777 777.063 577.79C784.444 576.803 791.219 573.518 798.188 571.018C810.232 566.706 824 564.74 835.882 569.448C836.934 569.989 838.108 570.248 839.29 570.201C841.896 569.821 842.665 566.681 844.494 564.893C847.781 561.657 854.92 562.547 856.368 558.291C857.178 555.791 855.268 553.234 853.131 551.535C845.037 545.014 833.397 543.938 822.762 544.949C812.126 545.96 801.717 548.719 791.009 548.736C777.702 548.736 764.841 544.48 751.663 542.74C742.533 541.527 732.57 541.68 724.006 545.24C714.755 549.124 712.723 557.733 704.321 562.118Z" fill="#05379B"/>
<path opacity="0.1" d="M9.59149 347.886C23.6428 407.921 53.3885 459.816 100.391 484.971C198.094 537.246 418.423 510.279 582.854 479.307C665.944 463.709 741.366 420.612 796.974 356.956L9.59149 347.886Z" fill="#05379B"/>
<path opacity="0.1" d="M871.893 65.2858H781.668C779.601 65.2858 777.618 64.4649 776.157 63.0037C774.695 61.5425 773.874 59.5607 773.874 57.4942C773.874 55.4278 774.695 53.4459 776.157 51.9847C777.618 50.5235 779.601 49.7026 781.668 49.7026H797.266C795.241 49.6374 793.321 48.7875 791.911 47.3327C790.502 45.8778 789.714 43.9321 789.714 41.907C789.714 39.8819 790.502 37.9362 791.911 36.4813C793.321 35.0265 795.241 34.1766 797.266 34.1114H786.128C784.103 34.0462 782.183 33.1963 780.774 31.7414C779.365 30.2866 778.577 28.3409 778.577 26.3158C778.577 24.2907 779.365 22.3449 780.774 20.8901C782.183 19.4353 784.103 18.5854 786.128 18.5201H833.219C822.77 13.6656 810.556 10.2108 796.48 8.40647C668.076 -8.08286 622.231 2.82372 606.059 14.0701C586.108 27.9056 563.849 38.084 540.06 42.9872C460.836 59.3228 312.674 78.9837 178.385 36.7005C111.641 15.664 62.0411 51.1914 32.3035 110.555H887.555C886.438 93.2966 883.095 77.3817 876.96 63.4249C875.549 64.633 873.751 65.2936 871.893 65.2858Z" fill="#05379B"/>
<path opacity="0.1" d="M1.93448 222.582C-1.53085 257.495 -0.35508 292.714 5.43111 327.319L797.581 356.285C819.632 330.928 838.147 302.704 852.621 272.382L1.93448 222.582ZM315.24 297.302H299.642C301.71 297.302 303.692 298.123 305.154 299.584C306.616 301.045 307.437 303.027 307.437 305.093C307.437 307.16 306.616 309.141 305.154 310.603C303.692 312.064 301.71 312.885 299.642 312.885H209.418C207.351 312.885 205.368 312.064 203.906 310.603C202.444 309.141 201.623 307.16 201.623 305.093C201.623 303.027 202.444 301.045 203.906 299.584C205.368 298.123 207.351 297.302 209.418 297.302H225.015C222.99 297.236 221.07 296.386 219.661 294.932C218.252 293.477 217.464 291.531 217.464 289.506C217.464 287.481 218.252 285.535 219.661 284.08C221.07 282.625 222.99 281.776 225.015 281.71H213.878C211.853 281.645 209.933 280.795 208.523 279.34C207.114 277.886 206.326 275.94 206.326 273.915C206.326 271.89 207.114 269.944 208.523 268.489C209.933 267.034 211.853 266.184 213.878 266.119H304.102C306.127 266.184 308.047 267.034 309.456 268.489C310.866 269.944 311.654 271.89 311.654 273.915C311.654 275.94 310.866 277.886 309.456 279.34C308.047 280.795 306.127 281.645 304.102 281.71H315.24C317.264 281.776 319.185 282.625 320.594 284.08C322.003 285.535 322.791 287.481 322.791 289.506C322.791 291.531 322.003 293.477 320.594 294.932C319.185 296.386 317.264 297.236 315.24 297.302Z" fill="#05379B"/>
<path opacity="0.1" d="M887.595 111.081L22.7605 132.117C12.2382 159.141 5.30159 189.7 2.06396 221.384H872.443C878.123 202.774 882.326 183.744 885.013 164.473C887.603 145.855 888.639 127.853 887.595 111.081ZM177.64 179.983H162.043C164.11 179.983 166.093 180.804 167.555 182.265C169.017 183.726 169.838 185.708 169.838 187.775C169.838 189.841 169.017 191.823 167.555 193.284C166.093 194.745 164.11 195.566 162.043 195.566H71.8186C69.7514 195.566 67.7688 194.745 66.307 193.284C64.8452 191.823 64.024 189.841 64.024 187.775C64.024 185.708 64.8452 183.726 66.307 182.265C67.7688 180.804 69.7514 179.983 71.8186 179.983H87.4159C85.391 179.918 83.471 179.068 82.0617 177.613C80.6524 176.158 79.8645 174.212 79.8645 172.187C79.8645 170.162 80.6524 168.217 82.0617 166.762C83.471 165.307 85.391 164.457 87.4159 164.392H76.2785C74.2536 164.327 72.3335 163.477 70.9243 162.022C69.515 160.567 68.7271 158.621 68.7271 156.596C68.7271 154.571 69.515 152.625 70.9243 151.17C72.3335 149.716 74.2536 148.866 76.2785 148.8H166.503C168.528 148.866 170.448 149.716 171.857 151.17C173.266 152.625 174.054 154.571 174.054 156.596C174.054 158.621 173.266 160.567 171.857 162.022C170.448 163.477 168.528 164.327 166.503 164.392H177.64C179.665 164.457 181.585 165.307 182.995 166.762C184.404 168.217 185.192 170.162 185.192 172.187C185.192 174.212 184.404 176.158 182.995 177.613C181.585 179.068 179.665 179.918 177.64 179.983Z" fill="#05379B"/>
<g opacity="0.1">
<path opacity="0.1" d="M472.135 480.294C472.135 480.294 494.96 424.062 537.584 403.196C555.516 394.563 570.163 380.348 579.325 362.684C583.608 354.262 587.112 345.466 589.79 336.405" stroke="#535461" stroke-width="2" stroke-miterlimit="10"/>
<path opacity="0.1" d="M616.574 323.104C612.13 328.686 589.135 336.858 589.135 336.858C589.135 336.858 591.903 312.626 596.347 307.043C597.36 305.596 598.659 304.372 600.164 303.446C601.669 302.52 603.347 301.911 605.096 301.658C606.844 301.404 608.626 301.511 610.332 301.972C612.038 302.433 613.632 303.238 615.015 304.337C616.398 305.436 617.541 306.807 618.374 308.365C619.208 309.922 619.713 311.634 619.86 313.394C620.007 315.154 619.792 316.926 619.228 318.6C618.664 320.274 617.764 321.815 616.582 323.128L616.574 323.104Z" fill="#05379B"/>
<path opacity="0.1" d="M608.682 367.321C601.915 369.594 578.183 363.947 578.183 363.947C578.183 363.947 593.684 345.111 600.45 342.837C602.091 342.157 603.854 341.821 605.63 341.85C607.406 341.879 609.156 342.273 610.773 343.008C612.391 343.743 613.839 344.802 615.029 346.12C616.219 347.438 617.125 348.986 617.691 350.669C618.257 352.352 618.471 354.134 618.318 355.903C618.166 357.672 617.652 359.391 616.807 360.952C615.962 362.514 614.804 363.885 613.407 364.981C612.009 366.076 610.401 366.873 608.682 367.321Z" fill="#05379B"/>
<path opacity="0.1" d="M565.897 419.596C558.911 418.148 541.274 401.286 541.274 401.286C541.274 401.286 564.172 392.848 571.158 394.304C574.322 395.186 577.033 397.236 578.742 400.041C580.45 402.846 581.029 406.195 580.36 409.41C579.691 412.625 577.825 415.465 575.14 417.357C572.454 419.248 569.15 420.049 565.897 419.596Z" fill="#05379B"/>
<path opacity="0.1" d="M524.617 451.863C517.486 451.612 497.251 437.979 497.251 437.979C497.251 437.979 518.393 425.794 525.523 426.037C527.29 425.99 529.048 426.306 530.689 426.964C532.329 427.622 533.818 428.609 535.062 429.864C536.306 431.119 537.281 432.615 537.925 434.26C538.569 435.906 538.869 437.666 538.807 439.431C538.745 441.197 538.322 442.932 537.564 444.528C536.806 446.124 535.73 447.549 534.4 448.713C533.071 449.878 531.517 450.758 529.835 451.3C528.152 451.842 526.376 452.033 524.617 451.863Z" fill="#05379B"/>
<path opacity="0.1" d="M556.087 348.145C556.993 355.217 572.453 374.093 572.453 374.093C572.453 374.093 582.635 351.924 581.721 344.844C581.609 343.076 581.136 341.35 580.331 339.772C579.526 338.195 578.405 336.799 577.038 335.672C575.672 334.544 574.088 333.709 572.386 333.218C570.683 332.727 568.898 332.591 567.141 332.817C565.383 333.043 563.691 333.628 562.169 334.534C560.646 335.44 559.326 336.649 558.29 338.086C557.254 339.523 556.524 341.157 556.145 342.887C555.766 344.617 555.746 346.407 556.087 348.145Z" fill="#05379B"/>
<path opacity="0.1" d="M508.283 386.496C511.27 392.969 531.675 406.359 531.675 406.359C531.675 406.359 534.743 382.159 531.756 375.679C530.189 372.786 527.579 370.599 524.457 369.561C521.335 368.522 517.934 368.711 514.946 370.088C511.958 371.465 509.607 373.927 508.369 376.975C507.131 380.022 507.101 383.427 508.283 386.496Z" fill="#05379B"/>
<path opacity="0.1" d="M466.939 430.131C468.792 437.016 486.631 453.659 486.631 453.659C486.631 453.659 493.754 430.325 491.909 423.439C490.861 420.315 488.66 417.708 485.756 416.149C482.851 414.59 479.461 414.198 476.277 415.051C473.093 415.904 470.354 417.939 468.619 420.741C466.884 423.543 466.283 426.901 466.939 430.131Z" fill="#05379B"/>
<path opacity="0.25" d="M616.574 323.104C612.13 328.686 589.135 336.858 589.135 336.858C589.135 336.858 591.903 312.626 596.347 307.043C597.36 305.596 598.659 304.372 600.164 303.446C601.669 302.52 603.347 301.911 605.096 301.658C606.844 301.404 608.626 301.511 610.332 301.972C612.038 302.433 613.632 303.238 615.015 304.337C616.398 305.436 617.541 306.807 618.374 308.365C619.208 309.922 619.713 311.634 619.86 313.394C620.007 315.154 619.792 316.926 619.228 318.6C618.664 320.274 617.764 321.815 616.582 323.128L616.574 323.104Z" fill="black"/>
<path opacity="0.25" d="M608.682 367.321C601.915 369.594 578.183 363.947 578.183 363.947C578.183 363.947 593.684 345.111 600.45 342.837C602.091 342.157 603.854 341.821 605.63 341.85C607.406 341.879 609.156 342.273 610.773 343.008C612.391 343.743 613.839 344.802 615.029 346.12C616.219 347.438 617.125 348.986 617.691 350.669C618.257 352.352 618.471 354.134 618.318 355.903C618.166 357.672 617.652 359.391 616.807 360.952C615.962 362.514 614.804 363.885 613.407 364.981C612.009 366.076 610.401 366.873 608.682 367.321Z" fill="black"/>
<path opacity="0.25" d="M565.897 419.596C558.911 418.148 541.274 401.286 541.274 401.286C541.274 401.286 564.172 392.848 571.158 394.304C574.322 395.186 577.033 397.236 578.742 400.041C580.45 402.846 581.029 406.195 580.36 409.41C579.691 412.625 577.825 415.465 575.14 417.357C572.454 419.248 569.15 420.049 565.897 419.596Z" fill="black"/>
<path opacity="0.25" d="M524.617 451.863C517.486 451.612 497.251 437.979 497.251 437.979C497.251 437.979 518.393 425.794 525.523 426.037C527.29 425.99 529.048 426.306 530.689 426.964C532.329 427.622 533.818 428.609 535.062 429.864C536.306 431.119 537.281 432.615 537.925 434.26C538.569 435.906 538.869 437.666 538.807 439.431C538.745 441.197 538.322 442.932 537.564 444.528C536.806 446.124 535.73 447.549 534.4 448.713C533.071 449.878 531.517 450.758 529.835 451.3C528.152 451.842 526.376 452.033 524.617 451.863Z" fill="black"/>
<path opacity="0.25" d="M556.087 348.145C556.993 355.217 572.453 374.093 572.453 374.093C572.453 374.093 582.635 351.924 581.721 344.844C581.609 343.076 581.136 341.35 580.331 339.772C579.526 338.195 578.405 336.799 577.038 335.672C575.672 334.544 574.088 333.709 572.386 333.218C570.683 332.727 568.898 332.591 567.141 332.817C565.383 333.043 563.691 333.628 562.169 334.534C560.646 335.44 559.326 336.649 558.29 338.086C557.254 339.523 556.524 341.157 556.145 342.887C555.766 344.617 555.746 346.407 556.087 348.145Z" fill="black"/>
<path opacity="0.25" d="M508.283 386.496C511.27 392.969 531.675 406.359 531.675 406.359C531.675 406.359 534.743 382.159 531.756 375.679C530.189 372.786 527.579 370.599 524.457 369.561C521.335 368.522 517.934 368.711 514.946 370.088C511.958 371.465 509.607 373.927 508.369 376.975C507.131 380.022 507.101 383.427 508.283 386.496Z" fill="black"/>
<path opacity="0.25" d="M466.939 430.131C468.792 437.016 486.631 453.659 486.631 453.659C486.631 453.659 493.754 430.325 491.909 423.439C490.861 420.315 488.66 417.708 485.756 416.149C482.851 414.59 479.461 414.198 476.277 415.051C473.093 415.904 470.354 417.939 468.619 420.741C466.884 423.543 466.283 426.901 466.939 430.131Z" fill="black"/>
</g>
<g opacity="0.1">
<path opacity="0.1" d="M489.214 395.153C489.214 395.153 492.095 334.536 525.386 300.732C539.442 286.64 548.544 268.371 551.327 248.667C552.567 239.303 552.947 229.846 552.461 220.413" stroke="#535461" stroke-width="2" stroke-miterlimit="10"/>
<path opacity="0.1" d="M573.335 198.98C570.996 205.72 552.007 221.028 552.007 221.028C552.007 221.028 546.584 197.249 548.915 190.509C549.388 188.804 550.205 187.214 551.317 185.837C552.429 184.46 553.811 183.325 555.378 182.503C556.946 181.681 558.665 181.189 560.43 181.057C562.196 180.925 563.969 181.156 565.641 181.736C567.314 182.316 568.849 183.233 570.153 184.43C571.457 185.626 572.502 187.077 573.223 188.693C573.944 190.309 574.326 192.056 574.345 193.825C574.365 195.595 574.021 197.349 573.335 198.98Z" fill="#05379B"/>
<path opacity="0.1" d="M580.563 243.286C574.897 247.68 550.664 250.212 550.664 250.212C550.664 250.212 559.041 227.299 564.666 222.913C567.386 221.062 570.708 220.314 573.959 220.822C577.21 221.331 580.146 223.057 582.169 225.65C584.193 228.244 585.153 231.51 584.855 234.786C584.557 238.062 583.022 241.101 580.563 243.286Z" fill="#05379B"/>
<path opacity="0.1" d="M557.544 306.808C550.469 307.755 528.235 297.698 528.235 297.698C528.235 297.698 547.038 282.123 554.079 281.201C557.361 280.976 560.605 282.008 563.153 284.088C565.702 286.167 567.363 289.138 567.799 292.397C568.236 295.656 567.416 298.959 565.505 301.636C563.594 304.312 560.736 306.162 557.511 306.808H557.544Z" fill="#05379B"/>
<path opacity="0.1" d="M529.295 350.936C522.488 353.064 498.878 346.891 498.878 346.891C498.878 346.891 514.775 328.387 521.59 326.259C523.243 325.622 525.009 325.331 526.779 325.404C528.55 325.477 530.286 325.912 531.881 326.682C533.477 327.453 534.897 328.542 536.054 329.883C537.211 331.224 538.081 332.789 538.609 334.479C539.137 336.169 539.313 337.95 539.125 339.711C538.937 341.472 538.389 343.176 537.516 344.717C536.643 346.258 535.463 347.604 534.049 348.671C532.635 349.738 531.017 350.503 529.295 350.92V350.936Z" fill="#05379B"/>
<path opacity="0.1" d="M524.577 242.655C527.814 249.023 548.632 261.71 548.632 261.71C548.632 261.71 550.874 237.437 547.669 231.045C546.976 229.417 545.956 227.949 544.672 226.73C543.389 225.512 541.87 224.57 540.208 223.961C538.546 223.353 536.777 223.091 535.01 223.193C533.243 223.294 531.516 223.757 529.935 224.552C528.353 225.347 526.952 226.457 525.817 227.815C524.682 229.172 523.837 230.748 523.335 232.444C522.833 234.141 522.684 235.922 522.898 237.678C523.111 239.435 523.683 241.128 524.577 242.655Z" fill="#05379B"/>
<path opacity="0.1" d="M492.2 294.672C497.17 299.794 520.853 305.66 520.853 305.66C520.853 305.66 515.73 281.816 510.76 276.694C509.613 275.342 508.201 274.241 506.611 273.457C505.021 272.673 503.287 272.224 501.516 272.138C499.745 272.051 497.975 272.329 496.316 272.954C494.657 273.579 493.144 274.538 491.871 275.771C490.598 277.004 489.592 278.486 488.915 280.124C488.238 281.761 487.904 283.521 487.935 285.293C487.966 287.065 488.36 288.811 489.094 290.425C489.828 292.038 490.885 293.484 492.2 294.672Z" fill="#05379B"/>
<path opacity="0.1" d="M467.675 349.553C471.722 355.443 494.062 365.217 494.062 365.217C494.062 365.217 493.034 340.847 489.011 334.965C488.115 333.43 486.912 332.095 485.478 331.045C484.044 329.995 482.408 329.251 480.674 328.86C478.939 328.469 477.143 328.439 475.396 328.773C473.65 329.106 471.991 329.796 470.522 330.798C469.054 331.8 467.808 333.094 466.861 334.599C465.915 336.103 465.289 337.787 465.022 339.544C464.755 341.301 464.852 343.095 465.309 344.812C465.765 346.53 466.571 348.136 467.675 349.529V349.553Z" fill="#05379B"/>
</g>
<path d="M800.179 503.815C800.179 503.815 804.631 509.632 798.132 518.378C791.632 527.125 786.274 534.56 788.419 540.038C788.419 540.038 798.229 523.743 806.226 523.508C814.223 523.273 808.961 513.613 800.179 503.815Z" fill="#05379B"/>
<path opacity="0.1" d="M800.179 503.815C800.569 504.378 800.877 504.994 801.094 505.643C808.881 514.786 813.025 523.322 805.538 523.532C798.569 523.735 790.208 536.195 788.2 539.342C788.266 539.586 788.345 539.826 788.435 540.062C788.435 540.062 798.245 523.767 806.242 523.532C814.239 523.298 808.962 513.613 800.179 503.815Z" fill="black"/>
<path d="M808.452 511.218C808.452 513.265 808.217 514.924 807.934 514.924C807.65 514.924 807.424 513.265 807.424 511.218C807.424 509.171 807.707 510.134 807.99 510.134C808.273 510.134 808.452 509.171 808.452 511.218Z" fill="#FFD037"/>
<path d="M811.284 513.661C809.488 514.64 807.917 515.231 807.788 514.98C807.658 514.729 808.994 513.742 810.791 512.763C812.588 511.784 811.883 512.496 812.021 512.763C812.159 513.03 813.089 512.715 811.284 513.661Z" fill="#FFD037"/>
<path d="M776.666 503.815C776.666 503.815 772.214 509.632 778.714 518.378C785.213 527.125 790.572 534.56 788.427 540.038C788.427 540.038 778.625 523.743 770.62 523.508C762.615 523.273 767.916 513.613 776.666 503.815Z" fill="#05379B"/>
<path opacity="0.1" d="M776.666 503.815C776.277 504.378 775.969 504.994 775.752 505.643C767.965 514.786 763.821 523.322 771.308 523.532C778.277 523.735 786.638 536.195 788.645 539.342C788.58 539.587 788.499 539.828 788.403 540.062C788.403 540.062 778.601 523.767 770.596 523.532C762.591 523.298 767.916 513.613 776.666 503.815Z" fill="black"/>
<path d="M768.426 511.218C768.426 513.265 768.661 514.924 768.944 514.924C769.228 514.924 769.454 513.265 769.454 511.218C769.454 509.171 769.171 510.134 768.888 510.134C768.604 510.134 768.426 509.171 768.426 511.218Z" fill="#FFD037"/>
<path d="M765.593 513.661C767.39 514.64 768.952 515.231 769.09 514.98C769.228 514.729 767.884 513.742 766.087 512.763C764.29 511.784 764.994 512.496 764.857 512.763C764.719 513.03 763.797 512.715 765.593 513.661Z" fill="#FFD037"/>
<path d="M769.843 539.293C769.843 539.293 782.275 538.913 786.031 536.243C789.787 533.573 805.157 530.393 806.088 534.625C807.019 538.857 824.769 555.904 810.734 556.018C796.699 556.131 778.123 553.825 774.384 551.551C770.644 549.278 769.843 539.293 769.843 539.293Z" fill="#A8A8A8"/>
<path opacity="0.2" d="M810.977 554.561C796.942 554.674 778.366 552.377 774.626 550.103C771.777 548.372 770.644 542.15 770.264 539.277H769.843C769.843 539.277 770.652 549.302 774.375 551.576C778.099 553.849 796.691 556.147 810.726 556.042C814.773 556.001 816.173 554.561 816.1 552.433C815.518 553.736 813.988 554.537 810.977 554.561Z" fill="black"/>
<path opacity="0.1" d="M0.679932 581.35C17.4185 587.402 37.8398 583.721 56.8285 584.15C59.4267 584.206 62.1867 584.384 64.2669 585.428C66.3471 586.472 67.3831 588.171 68.8077 589.619C74.1336 595.016 84.9958 596.755 94.5711 595.841C104.146 594.927 112.839 591.893 121.856 589.579C137.405 585.59 155.179 583.769 170.518 588.122C171.925 588.632 173.417 588.868 174.913 588.818C178.272 588.462 179.275 585.582 181.631 583.915C185.872 580.93 195.091 581.739 196.961 577.798C198.054 575.492 195.536 573.13 192.801 571.552C182.319 565.524 167.321 564.529 153.609 565.46C139.898 566.39 126.405 568.955 112.613 568.963C95.4372 568.963 78.8362 565.031 61.8225 563.421C50.0375 562.304 37.1842 562.442 26.1358 565.735C14.1404 569.295 11.5017 577.289 0.679932 581.35Z" fill="#05379B"/>
<path d="M189.919 565.484C191.407 564.277 192.491 562.646 193.027 560.807C193.424 558.946 192.631 556.721 190.858 556.042C188.867 555.281 186.738 556.657 185.128 558.048C183.517 559.44 181.663 561.034 179.551 560.743C180.637 559.757 181.45 558.508 181.909 557.115C182.369 555.723 182.46 554.235 182.173 552.797C182.081 552.202 181.829 551.643 181.445 551.179C180.344 549.998 178.337 550.508 177.009 551.438C172.8 554.399 171.627 560.111 171.61 565.257C171.181 563.396 171.538 561.471 171.529 559.594C171.521 557.717 170.995 555.548 169.393 554.561C168.403 554.013 167.286 553.734 166.155 553.752C164.261 553.687 162.157 553.873 160.861 555.257C159.243 556.972 159.672 559.861 161.072 561.73C162.472 563.599 164.593 564.804 166.544 566.115C168.113 567.048 169.452 568.323 170.461 569.845C170.58 570.056 170.678 570.278 170.752 570.508H182.562C185.232 569.177 187.707 567.486 189.919 565.484Z" fill="#05379B"/>
<path d="M95.68 578.251C95.68 578.251 84.3483 539.65 97.8087 511.234C103.548 499.355 105.281 485.935 102.746 472.988C101.487 466.852 99.6722 460.842 97.3231 455.035" stroke="#535461" stroke-width="2" stroke-miterlimit="10"/>
<path d="M105.733 437.081C105.733 441.814 97.1612 455.528 97.1612 455.528C97.1612 455.528 88.5896 441.773 88.5896 437.081C88.5896 434.808 89.4927 432.629 91.1002 431.022C92.7077 429.415 94.8879 428.512 97.1612 428.512C99.4346 428.512 101.615 429.415 103.222 431.022C104.83 432.629 105.733 434.808 105.733 437.081Z" fill="#05379B"/>
<path d="M119.897 463.287C117.323 467.252 102.673 474.113 102.673 474.113C102.673 474.113 102.932 457.931 105.506 453.975C106.742 452.067 108.684 450.728 110.907 450.252C113.13 449.777 115.452 450.203 117.36 451.438C119.268 452.673 120.608 454.615 121.084 456.837C121.56 459.059 121.133 461.379 119.897 463.287Z" fill="#05379B"/>
<path d="M119.274 508.063C115.049 510.19 98.9337 508.726 98.9337 508.726C98.9337 508.726 107.335 494.899 111.56 492.771C113.589 491.748 115.941 491.573 118.099 492.284C120.256 492.995 122.043 494.533 123.066 496.561C124.089 498.589 124.264 500.94 123.553 503.097C122.842 505.254 121.303 507.04 119.274 508.063Z" fill="#05379B"/>
<path d="M111.172 541.842C107.368 544.65 91.2363 545.888 91.2363 545.888C91.2363 545.888 97.1774 530.838 100.949 528.023C101.847 527.287 102.885 526.741 104.001 526.419C105.116 526.096 106.285 526.003 107.438 526.146C108.59 526.289 109.701 526.664 110.704 527.249C111.707 527.835 112.58 528.617 113.271 529.55C113.962 530.483 114.457 531.546 114.724 532.676C114.992 533.805 115.027 534.977 114.827 536.12C114.628 537.264 114.198 538.355 113.564 539.327C112.931 540.3 112.106 541.133 111.14 541.777L111.172 541.842Z" fill="#05379B"/>
<path d="M84.6801 475.035C88.0715 478.328 103.887 481.743 103.887 481.743C103.887 481.743 100.01 466.038 96.6027 462.745C95.8025 461.928 94.8468 461.279 93.7918 460.836C92.7367 460.394 91.6038 460.167 90.4597 460.169C89.3156 460.171 88.1835 460.403 87.1301 460.849C86.0768 461.295 85.1235 461.948 84.3265 462.768C83.5294 463.589 82.9048 464.561 82.4894 465.626C82.0739 466.692 81.8761 467.83 81.9075 468.973C81.939 470.116 82.1991 471.242 82.6725 472.283C83.1459 473.324 83.823 474.26 84.6639 475.035H84.6801Z" fill="#05379B"/>
<path d="M75.7199 514.657C79.945 516.785 96.0603 515.312 96.0603 515.312C96.0603 515.312 87.6668 501.485 83.4336 499.357C81.4103 498.388 79.0878 498.251 76.9646 498.975C74.8413 499.699 73.0866 501.226 72.077 503.228C71.0674 505.231 70.8834 507.549 71.5645 509.686C72.2456 511.823 73.7375 513.607 75.7199 514.657Z" fill="#05379B"/>
<path d="M72.2719 554.359C76.0762 557.174 92.2076 558.404 92.2076 558.404C92.2076 558.404 86.2666 543.355 82.4947 540.548C81.5967 539.812 80.5586 539.266 79.4432 538.943C78.3278 538.621 77.1585 538.528 76.0062 538.671C74.8539 538.814 73.7426 539.189 72.7398 539.774C71.737 540.359 70.8636 541.142 70.1726 542.075C69.4815 543.008 68.9873 544.071 68.7198 545.2C68.4523 546.33 68.4172 547.502 68.6165 548.645C68.8159 549.789 69.2456 550.88 69.8795 551.852C70.5134 552.825 71.3384 553.658 72.3043 554.302L72.2719 554.359Z" fill="#05379B"/>
<path d="M105.733 437.081C105.733 441.814 97.1612 455.528 97.1612 455.528C97.1612 455.528 88.5896 441.773 88.5896 437.081C88.5896 434.808 89.4927 432.629 91.1002 431.022C92.7077 429.415 94.8879 428.512 97.1612 428.512C99.4346 428.512 101.615 429.415 103.222 431.022C104.83 432.629 105.733 434.808 105.733 437.081Z" fill="#05379B"/>
<path d="M119.897 463.287C117.323 467.252 102.673 474.113 102.673 474.113C102.673 474.113 102.932 457.931 105.506 453.975C106.742 452.067 108.684 450.728 110.907 450.252C113.13 449.777 115.452 450.203 117.36 451.438C119.268 452.673 120.608 454.615 121.084 456.837C121.56 459.059 121.133 461.379 119.897 463.287Z" fill="#05379B"/>
<path d="M119.274 508.063C115.049 510.19 98.9337 508.726 98.9337 508.726C98.9337 508.726 107.335 494.899 111.56 492.771C113.589 491.748 115.941 491.573 118.099 492.284C120.256 492.995 122.043 494.533 123.066 496.561C124.089 498.589 124.264 500.94 123.553 503.097C122.842 505.254 121.303 507.04 119.274 508.063Z" fill="#05379B"/>
<path d="M111.172 541.842C107.368 544.65 91.2363 545.888 91.2363 545.888C91.2363 545.888 97.1774 530.838 100.949 528.023C101.847 527.287 102.885 526.741 104.001 526.419C105.116 526.096 106.285 526.003 107.438 526.146C108.59 526.289 109.701 526.664 110.704 527.249C111.707 527.835 112.58 528.617 113.271 529.55C113.962 530.483 114.457 531.546 114.724 532.676C114.992 533.805 115.027 534.977 114.827 536.12C114.628 537.264 114.198 538.355 113.564 539.327C112.931 540.3 112.106 541.133 111.14 541.777L111.172 541.842Z" fill="#05379B"/>
<path d="M84.6801 475.035C88.0715 478.328 103.887 481.743 103.887 481.743C103.887 481.743 100.01 466.038 96.6027 462.745C95.8025 461.928 94.8468 461.279 93.7918 460.836C92.7367 460.394 91.6038 460.167 90.4597 460.169C89.3156 460.171 88.1835 460.403 87.1301 460.849C86.0768 461.295 85.1235 461.948 84.3265 462.768C83.5294 463.589 82.9048 464.561 82.4894 465.626C82.0739 466.692 81.8761 467.83 81.9075 468.973C81.939 470.116 82.1991 471.242 82.6725 472.283C83.1459 473.324 83.823 474.26 84.6639 475.035H84.6801Z" fill="#05379B"/>
<path d="M75.7199 514.657C79.945 516.785 96.0603 515.312 96.0603 515.312C96.0603 515.312 87.6668 501.485 83.4336 499.357C81.4103 498.388 79.0878 498.251 76.9646 498.975C74.8413 499.699 73.0866 501.226 72.077 503.228C71.0674 505.231 70.8834 507.549 71.5645 509.686C72.2456 511.823 73.7375 513.607 75.7199 514.657Z" fill="#05379B"/>
<path d="M72.2719 554.359C76.0762 557.174 92.2076 558.404 92.2076 558.404C92.2076 558.404 86.2666 543.355 82.4947 540.548C81.5967 539.812 80.5586 539.266 79.4432 538.943C78.3278 538.621 77.1585 538.528 76.0062 538.671C74.8539 538.814 73.7426 539.189 72.7398 539.774C71.737 540.359 70.8636 541.142 70.1726 542.075C69.4815 543.008 68.9873 544.071 68.7198 545.2C68.4523 546.33 68.4172 547.502 68.6165 548.645C68.8159 549.789 69.2456 550.88 69.8795 551.852C70.5134 552.825 71.3384 553.658 72.3043 554.302L72.2719 554.359Z" fill="#05379B"/>
<path d="M68.7996 575.824C68.7996 575.824 82.6485 573.073 86.3394 569.408C90.0303 565.743 106.656 559.327 108.501 563.914C110.346 568.502 133.431 584.069 117.736 586.82C102.042 589.571 80.8031 590.485 76.1814 588.656C71.5596 586.828 68.7996 575.824 68.7996 575.824Z" fill="#A8A8A8"/>
<path opacity="0.2" d="M117.736 585.113C102.034 587.863 80.8031 588.778 76.1814 586.941C72.6685 585.549 70.2241 578.85 69.2609 575.719L68.7996 575.816C68.7996 575.816 71.5677 586.812 76.1814 588.648C80.795 590.485 102.034 589.563 117.736 586.812C122.261 586.003 123.556 584.158 123.07 581.795C122.666 583.333 121.103 584.522 117.736 585.113Z" fill="black"/>
<path opacity="0.1" d="M278.29 657.988C310.116 668.676 348.943 662.171 385.051 662.931C389.996 663.036 395.233 663.344 399.199 665.189C403.165 667.033 405.108 670.043 407.828 672.6C417.953 682.131 438.682 685.206 456.805 683.579C474.927 681.953 491.545 676.605 508.607 672.527C538.166 665.472 571.959 662.268 601.114 669.954C603.793 670.658 606.61 671.467 609.475 671.184C615.869 670.561 617.771 665.439 622.247 662.519C630.342 657.243 647.841 658.675 651.386 651.725C653.466 647.68 648.683 643.464 643.478 640.689C623.559 630.033 595.051 628.278 568.964 629.928C542.877 631.579 517.243 636.094 491.026 636.11C458.367 636.11 426.808 629.168 394.464 626.32C372.06 624.337 347.608 624.588 326.604 630.365C303.884 636.7 298.865 650.811 278.29 657.988Z" fill="#05379B"/>
<path d="M574.622 576.496C574.8 574.95 575.059 573.413 575.334 571.876C576.549 565.217 574.695 558.874 573.716 556.26C573.432 555.451 573.222 554.99 573.222 554.99C568.309 553.655 548.94 568.656 541.914 574.311C539.486 574.311 536.815 574.416 533.925 574.61C532.662 574.699 531.392 574.732 530.129 574.708C528.996 574.708 527.385 574.708 525.507 574.708C518.959 569.44 498.716 553.59 493.665 554.966C493.665 554.966 493.463 555.419 493.171 556.236C492.224 558.849 490.379 565.193 491.553 571.851C491.836 573.389 492.087 574.926 492.265 576.471C492.645 579.861 494.062 586.342 499.21 590.736C500.302 598.746 504.43 609.272 507.603 615.664C507.841 616.873 508.202 618.055 508.68 619.192C507.368 624.24 505.863 630.834 506.251 633.011C506.251 633.011 499.412 631.352 498.716 639.589C498.716 639.67 498.716 639.759 498.716 639.84C496.239 640.98 493.155 643.57 496.628 649.015C497.046 649.683 497.676 650.193 498.416 650.463C499.032 650.682 499.631 650.682 499.566 649.816L503.848 654.67C503.848 654.67 511.602 655.56 511.691 651.062L512.144 651.135C513.188 651.288 514.281 651.418 515.382 651.531L515.916 653.311C515.916 653.311 510.096 653.19 511.683 656.766C511.683 656.766 513.148 658.125 513.649 657.632C513.649 657.632 512.897 659.978 515.916 659.978C515.916 659.978 519.153 661.709 520.44 660.48C521.727 659.25 524.35 657.389 524.601 656.645C524.674 656.442 524.706 654.614 524.714 652.089H525.216C531.691 652.243 538.604 652.033 544.885 651.693H545.386C545.386 654.436 545.427 656.442 545.5 656.661C545.751 657.405 548.397 659.258 549.66 660.496C550.923 661.734 554.185 659.994 554.185 659.994C557.204 659.994 556.451 657.648 556.451 657.648C556.953 658.141 558.418 656.782 558.418 656.782C560.037 653.206 554.185 653.327 554.185 653.327L554.873 651.046L558.11 650.779L558.612 650.73C558.304 655.625 566.455 654.687 566.455 654.687L570.737 649.832C570.672 650.698 571.271 650.698 571.886 650.479C572.627 650.209 573.257 649.699 573.675 649.031C578.92 640.827 569.223 639.087 569.223 639.087C568.924 639.007 568.618 638.959 568.309 638.942C568.309 638.796 568.309 638.65 568.309 638.513C568.426 637.438 568.448 636.355 568.373 635.276C568.009 633.796 565.613 631.449 562.594 631.077C560.627 630.834 560.579 621.781 560.789 615.502C561.009 614.32 561.112 613.12 561.097 611.918C561.118 609.984 560.845 608.058 560.288 606.206C564.148 599.668 567.24 592.823 567.572 590.76C572.833 586.342 574.242 579.87 574.622 576.496Z" fill="url(#paint0_linear)"/>
<path d="M567.167 638.933C566.86 643.197 566.034 650.042 566.034 650.042C566.034 650.042 562.602 650.463 557.301 650.94L553.707 651.248C550.939 651.466 547.847 651.685 544.577 651.871C538.523 652.203 531.877 652.405 525.621 652.259C522.488 652.186 519.453 652.025 516.636 651.749C515.382 651.628 514.208 651.482 513.002 651.304C505.822 650.236 500.715 648.189 500.246 644.589C500.02 643.073 499.963 641.538 500.076 640.01C500.748 631.919 507.36 633.537 507.36 633.537C506.931 631.304 508.534 624.362 509.789 619.337C510.598 616.174 511.302 613.771 511.302 613.771L557.625 610.664H557.778C558.086 610.664 558.391 610.728 558.673 610.849C558.956 610.971 559.211 611.149 559.423 611.372C559.635 611.595 559.799 611.859 559.906 612.148C560.013 612.436 560.06 612.743 560.045 613.051C559.769 618.601 559.373 631.32 561.663 631.603C564.577 631.967 566.884 634.273 567.232 635.729C567.308 636.797 567.287 637.87 567.167 638.933Z" fill="#05379B"/>
<path d="M527.814 577.968C527.814 577.968 510.347 599.005 501.913 593.171C501.711 593.034 501.516 592.888 501.33 592.742C495.664 588.454 494.183 581.561 493.795 578.057C493.625 576.536 493.382 575.031 493.115 573.518C491.941 566.981 493.73 560.759 494.636 558.186C494.912 557.377 495.106 556.948 495.106 556.948C500.966 555.33 527.814 577.968 527.814 577.968Z" fill="#05379B"/>
<path d="M518.465 579.91C518.465 579.91 512.961 583.794 505.199 590.097C504.005 591.083 502.729 591.968 501.387 592.742C495.721 588.454 494.24 581.561 493.851 578.057C493.681 576.536 493.439 575.031 493.171 573.518C491.998 566.981 493.787 560.759 494.693 558.186C505.515 558.946 518.465 579.91 518.465 579.91Z" fill="#EEC5CD"/>
<path opacity="0.1" d="M512.452 577.839C512.452 577.839 509.513 579.91 505.369 583.276C504.729 583.812 504.047 584.296 503.33 584.724C500.31 582.434 499.517 578.753 499.283 576.884C499.193 576.075 499.064 575.266 498.918 574.457C498.508 571.705 498.786 568.895 499.728 566.277C505.555 566.649 512.452 577.839 512.452 577.839Z" fill="black"/>
<path d="M539.138 577.968C539.138 577.968 556.613 599.005 565.039 593.171L565.622 592.742C571.287 588.454 572.761 581.561 573.149 578.057C573.319 576.536 573.57 575.031 573.837 573.518C575.003 566.981 573.222 560.759 572.307 558.186C572.032 557.377 571.83 556.948 571.83 556.948C565.994 555.33 539.138 577.968 539.138 577.968Z" fill="#05379B"/>
<path d="M548.519 579.91C548.519 579.91 554.023 583.794 561.785 590.097C562.983 591.082 564.261 591.967 565.605 592.742C571.271 588.454 572.744 581.561 573.133 578.057C573.303 576.536 573.554 575.031 573.821 573.518C574.986 566.981 573.206 560.759 572.291 558.186C561.437 558.946 548.519 579.91 548.519 579.91Z" fill="#EEC5CD"/>
<path opacity="0.1" d="M554.549 577.823C554.549 577.823 557.471 579.886 561.591 583.227C562.226 583.751 562.902 584.222 563.614 584.635C566.609 582.362 567.402 578.696 567.613 576.844C567.702 576.035 567.831 575.225 567.969 574.416C568.373 571.678 568.095 568.882 567.159 566.277C561.404 566.698 554.549 577.823 554.549 577.823Z" fill="black"/>
<path opacity="0.1" d="M557.641 610.68C555.439 614.167 553.092 617.314 550.947 619.2C543.994 625.341 514.07 622.921 512.095 622.598C511.691 622.533 510.841 621.319 509.772 619.361C510.582 616.198 511.286 613.795 511.286 613.795L557.641 610.68Z" fill="black"/>
<path d="M533.933 576.204C532.719 576.293 531.505 576.318 530.283 576.302C524.026 576.196 502.981 576.471 500.642 584.959C497.89 594.943 510.185 621.789 512.128 622.112C514.07 622.436 543.994 624.863 550.979 618.714C557.964 612.565 566.997 593.333 566.512 591.553C566.479 591.553 575.124 573.348 533.933 576.204Z" fill="#05379B"/>
<path opacity="0.1" d="M533.278 592.443C533.278 592.443 517.899 590.072 510.614 605.235C509.168 608.178 508.532 611.453 508.771 614.724C509.01 617.994 510.115 621.142 511.974 623.844C514.402 627.226 517.907 629.742 522.82 627.711C533.755 623.221 533.278 592.443 533.278 592.443Z" fill="black"/>
<path opacity="0.1" d="M532.792 591.472C532.792 591.472 517.413 589.101 510.129 604.264C508.682 607.207 508.046 610.482 508.285 613.753C508.524 617.023 509.63 620.171 511.488 622.873C513.917 626.255 517.421 628.771 522.334 626.749C533.269 622.25 532.792 591.472 532.792 591.472Z" fill="black"/>
<path d="M532.792 591.957C532.792 591.957 517.413 589.587 510.129 604.749C508.682 607.693 508.046 610.968 508.285 614.238C508.524 617.509 509.63 620.656 511.488 623.358C513.917 626.74 517.421 629.257 522.334 627.226C533.269 622.752 532.792 591.957 532.792 591.957Z" fill="#EEC5CD"/>
<path d="M516.167 605.21C516.167 605.21 514.062 607.152 514.872 607.638C515.681 608.123 516.167 605.21 516.167 605.21Z" fill="#3F2B3B"/>
<path d="M518.465 607.694C518.465 607.694 517.324 610.227 518.134 610.51C518.943 610.793 519.437 608.69 519.437 608.69L518.465 607.694Z" fill="#3F2B3B"/>
<path d="M513.35 611.521C513.35 611.521 512.233 614.515 513.35 614.515C514.467 614.515 513.35 611.521 513.35 611.521Z" fill="#3F2B3B"/>
<path d="M511.99 619.515C511.99 619.515 514.232 625.26 520.084 624.855" stroke="#3F2B3B" stroke-miterlimit="10"/>
<path d="M517.219 621.222C517.219 621.222 519.566 623.488 522.075 621.87" stroke="#3F2B3B" stroke-miterlimit="10"/>
<path opacity="0.1" d="M535.22 592.443C535.22 592.443 550.599 590.072 557.884 605.235C559.333 608.177 559.971 611.453 559.732 614.724C559.493 617.995 558.386 621.143 556.524 623.844C554.096 627.226 550.591 629.742 545.686 627.711C534.734 623.221 535.22 592.443 535.22 592.443Z" fill="black"/>
<path opacity="0.1" d="M535.706 591.472C535.706 591.472 551.084 589.101 558.369 604.264C559.819 607.206 560.457 610.482 560.218 613.753C559.979 617.024 558.871 620.172 557.009 622.873C554.581 626.255 551.076 628.771 546.171 626.749C535.22 622.25 535.706 591.472 535.706 591.472Z" fill="black"/>
<path d="M535.706 591.957C535.706 591.957 551.084 589.587 558.369 604.749C559.819 607.692 560.457 610.967 560.218 614.238C559.979 617.51 558.871 620.658 557.009 623.358C554.581 626.74 551.076 629.257 546.171 627.226C535.22 622.752 535.706 591.957 535.706 591.957Z" fill="#EEC5CD"/>
<path d="M552.323 605.21C552.323 605.21 554.427 607.152 553.618 607.638C552.809 608.123 552.323 605.21 552.323 605.21Z" fill="#3F2B3B"/>
<path d="M550.032 607.694C550.032 607.694 551.182 610.227 550.364 610.51C549.547 610.793 549.061 608.69 549.061 608.69L550.032 607.694Z" fill="#3F2B3B"/>
<path d="M555.14 611.521C555.14 611.521 556.257 614.515 555.14 614.515C554.022 614.515 555.14 611.521 555.14 611.521Z" fill="#3F2B3B"/>
<path d="M556.508 619.515C556.508 619.515 554.257 625.26 548.413 624.855" stroke="#3F2B3B" stroke-miterlimit="10"/>
<path d="M551.271 621.222C551.271 621.222 548.923 623.488 546.414 621.87" stroke="#3F2B3B" stroke-miterlimit="10"/>
<path d="M526.924 635.859C527.328 635.778 535.018 632.461 542.942 635.859H526.924Z" fill="#3F2B3B"/>
<path opacity="0.1" d="M513.002 651.304C505.823 650.236 500.715 648.189 500.246 644.589C500.02 643.073 499.963 641.538 500.076 640.01C500.94 639.55 501.863 639.212 502.82 639.006C504.123 638.642 505.733 638.885 509.133 639.815C512.533 640.746 512.29 644.791 513.018 650.002C513.083 650.434 513.078 650.874 513.002 651.304Z" fill="black"/>
<path d="M502.342 639.492C502.342 639.492 492.993 641.207 498.052 649.258C498.451 649.912 499.058 650.413 499.776 650.682C500.367 650.892 500.942 650.892 500.885 650.042L505.005 654.776C505.005 654.776 513.261 655.746 512.532 650.528C511.804 645.309 512.047 641.312 508.647 640.341C505.248 639.37 503.637 639.128 502.342 639.492Z" fill="#05379B"/>
<path d="M504.56 644.913C504.56 644.913 506.543 649.444 509.295 645.641" stroke="#3F2B3B" stroke-miterlimit="10"/>
<path d="M500.019 646.693C500.019 646.693 501.047 650.965 504.924 647.777" stroke="#3F2B3B" stroke-miterlimit="10"/>
<path opacity="0.1" d="M567.167 638.933C566.86 643.197 566.034 650.042 566.034 650.042C566.034 650.042 562.602 650.463 557.301 650.94C557.273 650.642 557.273 650.341 557.301 650.042C558.029 644.832 557.786 640.827 561.186 639.856C564.31 638.974 565.929 638.691 567.167 638.933Z" fill="black"/>
<path d="M568.017 639.492C568.017 639.492 577.358 641.207 572.307 649.258C571.903 649.91 571.294 650.411 570.575 650.682C569.984 650.892 569.409 650.892 569.474 650.042L565.346 654.776C565.346 654.776 557.098 655.746 557.827 650.528C558.555 645.309 558.312 641.312 561.704 640.341C565.095 639.37 566.714 639.128 568.017 639.492Z" fill="#05379B"/>
<path d="M565.791 644.913C565.791 644.913 563.808 649.444 561.056 645.641" stroke="#3F2B3B" stroke-miterlimit="10"/>
<path d="M570.34 646.693C570.34 646.693 569.312 650.965 565.427 647.777" stroke="#3F2B3B" stroke-miterlimit="10"/>
<path opacity="0.1" d="M525.62 652.259C522.488 652.186 519.453 652.025 516.636 651.749L513.844 642.332C513.598 641.511 513.532 640.647 513.65 639.798C513.767 638.95 514.065 638.136 514.524 637.413C514.983 636.689 515.591 636.072 516.309 635.604C517.027 635.136 517.836 634.827 518.684 634.699C519.531 634.57 520.396 634.625 521.22 634.859C522.045 635.093 522.809 635.501 523.462 636.056C524.115 636.611 524.641 637.299 525.005 638.075C525.369 638.85 525.562 639.695 525.572 640.552C525.596 644.249 525.629 648.893 525.62 652.259Z" fill="black"/>
<path d="M513.358 642.332L516.652 653.44C516.652 653.44 511.043 653.319 512.605 656.839C512.605 656.839 514.014 658.174 514.499 657.648C514.499 657.648 513.779 659.954 516.685 659.954C516.685 659.954 519.833 661.645 521.047 660.439C522.261 659.234 524.819 657.405 525.094 656.677C525.248 656.199 525.2 646.911 525.151 640.495C525.136 638.917 524.498 637.409 523.377 636.298C522.255 635.187 520.74 634.564 519.161 634.564C518.215 634.549 517.278 634.759 516.428 635.176C515.578 635.593 514.84 636.207 514.273 636.965C513.707 637.723 513.328 638.605 513.169 639.538C513.01 640.471 513.075 641.429 513.358 642.332Z" fill="#05379B"/>
<path d="M517.81 656.313C517.81 656.313 515.382 658.659 516.652 659.994" stroke="#3F2B3B" stroke-miterlimit="10"/>
<path d="M516.733 654.848C516.733 654.848 514.467 655.585 514.467 657.688" stroke="#3F2B3B" stroke-miterlimit="10"/>
<path opacity="0.1" d="M556.605 640.624C556.603 641.203 556.519 641.778 556.354 642.332L553.707 651.232C550.939 651.45 547.847 651.669 544.577 651.855C544.577 648.529 544.577 644.095 544.625 640.527C544.632 638.939 545.269 637.419 546.397 636.301C547.525 635.183 549.051 634.558 550.639 634.564C552.228 634.571 553.749 635.208 554.868 636.335C555.986 637.463 556.611 638.988 556.605 640.576V640.624Z" fill="black"/>
<path d="M556.831 642.332L553.537 653.44C553.537 653.44 559.146 653.319 557.584 656.839C557.584 656.839 556.176 658.174 555.69 657.648C555.69 657.648 556.419 659.954 553.505 659.954C553.505 659.954 550.364 661.645 549.142 660.439C547.92 659.234 545.378 657.405 545.095 656.677C544.933 656.199 544.982 646.911 545.038 640.495C545.051 638.918 545.687 637.409 546.807 636.298C547.928 635.188 549.442 634.564 551.02 634.564C551.967 634.548 552.905 634.757 553.756 635.173C554.607 635.59 555.346 636.203 555.914 636.962C556.481 637.72 556.86 638.602 557.02 639.536C557.18 640.47 557.115 641.428 556.831 642.332Z" fill="#05379B"/>
<path d="M552.38 656.313C552.38 656.313 554.808 658.659 553.537 659.994" stroke="#3F2B3B" stroke-miterlimit="10"/>
<path d="M553.456 654.848C553.456 654.848 555.722 655.585 555.722 657.688" stroke="#3F2B3B" stroke-miterlimit="10"/>
<path opacity="0.1" d="M532.792 589.53C532.792 589.53 521.387 589.166 521.023 598.018C520.659 606.869 538.83 603.115 538.83 603.115C538.83 603.115 546.479 602.087 545.144 596.715C543.808 591.342 541.048 590.016 532.792 589.53Z" fill="black"/>
<path opacity="0.1" d="M532.792 588.559C532.792 588.559 521.387 588.195 521.023 597.047C520.659 605.898 538.83 602.144 538.83 602.144C538.83 602.144 546.479 601.116 545.144 595.744C543.808 590.372 541.048 589.045 532.792 588.559Z" fill="black"/>
<path d="M532.792 589.045C532.792 589.045 521.387 588.681 521.023 597.532C520.659 606.384 538.83 602.629 538.83 602.629C538.83 602.629 546.479 601.602 545.144 596.229C543.808 590.857 541.048 589.53 532.792 589.045Z" fill="#3F2B3B"/>
<path opacity="0.1" d="M507.336 633.553C507.336 633.553 511.156 634.928 511.933 637.55L507.336 633.553Z" fill="black"/>
<path opacity="0.1" d="M561.664 631.652C561.664 631.652 558.928 632.801 559.114 637.59L561.664 631.652Z" fill="black"/>
<path d="M508.811 653.491C509.662 652.999 509.693 651.459 508.88 650.05C508.066 648.641 506.716 647.898 505.864 648.39C505.013 648.881 504.982 650.421 505.795 651.83C506.609 653.239 507.959 653.982 508.811 653.491Z" fill="#EEC5CD"/>
<path d="M567.406 649.428C568.22 648.013 568.186 646.468 567.33 645.976C566.474 645.485 565.121 646.233 564.308 647.648C563.494 649.063 563.528 650.609 564.384 651.101C565.239 651.592 566.592 650.843 567.406 649.428Z" fill="#EEC5CD"/>
<path d="M510.622 328.573C507.992 327.715 492.508 315.717 491.342 310.288C490.177 304.859 499.517 254.298 499.517 254.298C499.517 254.298 498.659 254.258 497.283 254.128V253.319L499.202 186.885C499.202 186.885 507.085 142.328 492.192 144.893C477.299 147.457 486.64 186.885 486.64 186.885C486.64 186.885 484.94 206.885 483.75 212.889C482.593 218.666 477.396 242.227 480.949 249.549C481.075 249.811 481.221 250.062 481.387 250.301C481.387 250.301 481.969 275.432 475.543 278.862C469.407 282.099 466.858 298.572 466.639 300.053L466.315 299.907C464.487 298.79 462.875 297.354 461.556 295.667C461.435 295.497 461.321 295.311 461.2 295.133C465.379 290.557 467.64 284.551 467.515 278.356C467.39 272.161 464.889 266.251 460.528 261.847L459.921 261.256C460.423 260.759 460.793 260.144 460.998 259.468C462.131 256.054 458.213 253.311 456.182 251.175C451.479 246.175 447.238 240.05 440.681 237.218C442.561 238.284 444.3 239.577 445.862 241.07C443.882 239.363 441.616 238.021 439.168 237.105C432.304 234.678 424.404 236.684 418.415 240.778C412.425 244.872 407.998 250.771 403.951 256.717L401.992 259.63C400.277 257.705 398.41 255.922 396.407 254.298C392.611 251.442 385.019 242.016 385.019 242.016C385.019 242.016 361.36 218.018 359.603 211.449C357.847 204.879 334.196 165.452 328.935 172.313C323.674 179.174 347.041 209.159 347.041 209.159C347.041 209.159 351.428 220.017 354.933 223.723C358.438 227.428 384.428 264.574 384.428 264.574L386.629 269.024L387.042 269.833L386.767 269.679V275.108L389.195 275.327C388.117 276.281 387.13 277.335 386.249 278.474C384.93 280.388 383.95 282.515 383.351 284.761C379.523 297.407 381.085 311.25 386.022 323.524C387.042 326.049 388.208 328.565 388.515 331.259C388.96 335.03 387.706 338.76 386.945 342.489C385.893 347.724 385.933 353.428 388.564 358.097C392.085 364.295 399.976 367.523 407.132 366.366C410.397 365.815 413.487 364.501 416.148 362.531C419.501 360.205 422.206 357.064 424.008 353.404C425.343 350.678 426.177 347.741 427.504 345.006C427.755 344.48 428.039 343.978 428.314 343.469C431.341 346.859 434.06 349.941 434.06 349.941C434.06 349.941 440.487 380.792 434.935 389.36C431.982 393.672 428.406 397.522 424.323 400.785C423.293 401.633 422.347 402.578 421.499 403.608C420.948 404.005 420.624 404.215 420.624 404.215C420.624 404.215 420.479 404.628 420.268 405.259C418.965 407.174 418.022 409.309 417.484 411.562C417.283 412.138 417.211 412.751 417.273 413.358C417.67 414.167 414.416 417.404 415.371 418.787C407.277 428.092 405.723 442.202 405.723 442.202L390.968 464.202C383.375 483.765 371.987 485.772 371.987 485.772C371.987 485.772 345.277 468.198 344.524 467.341C343.771 466.483 333.573 462.203 333.573 462.203C332.361 460.118 330.523 458.467 328.32 457.486C324.815 456.062 324.524 450.779 324.524 450.779C324.086 438.351 316.632 437.348 316.632 437.348C310.626 436.854 306.029 437.898 302.508 439.815L301.439 439.896C296.267 440.309 290.035 440.762 283.187 441.207C264.19 442.437 259.674 454.492 259.674 454.492C259.674 454.492 257.335 457.057 260.402 459.841C263.47 462.624 283.066 459.889 283.875 459.776C282.382 459.94 280.872 459.839 279.415 459.476C282.507 459.363 286.748 459.258 290.358 459.25H291.241C291.013 461.129 290.905 463.021 290.917 464.914C290.917 468.49 300.994 470.771 300.994 470.771L331.662 497.471C331.662 497.471 350.943 505.902 363.229 518.039C375.516 530.175 386.305 519.754 386.305 519.754C399.256 516.615 436.659 472.381 436.691 472.341C436.691 473.7 437.5 516.655 438.99 525.288C439.048 525.725 439.156 526.154 439.314 526.566C441.07 530.288 438.731 540.426 437.695 544.714C436.659 549.003 436.958 555.564 436.958 555.564C436.958 555.564 422.955 608.091 424.161 612.662C425.367 617.234 416.561 638.658 416.561 638.658V656.507C416.561 656.507 417.12 656.507 418.091 656.434C417.889 656.717 417.706 657.011 417.541 657.316C417.504 657.379 417.471 657.443 417.443 657.51C417.443 657.51 426.784 659.509 433.065 658.934C439.346 658.36 450.151 663.684 450.151 663.684C450.151 663.684 453.81 665.367 465.053 666.111C476.295 666.855 476.295 661.256 476.295 661.256C475 653.659 457.25 651.126 456.691 651.054C455.259 650.172 453.915 649.209 452.814 648.384L452.58 648.198C452.664 648.035 452.732 647.864 452.782 647.688C454.684 640.115 444.17 636.83 444.17 636.83V634.977C451.026 631.546 452.345 607.978 452.345 607.978C452.345 607.978 462.568 578.85 464.025 573.996C465.482 569.141 464.025 561.859 464.025 561.859L465.053 555.581C465.053 555.581 467.238 551.292 467.238 550.435C467.528 548.254 468.385 546.186 469.723 544.439C471.342 542.578 467.975 538.153 467.975 538.153L470.897 530.725V522.537L477.752 492.973C477.752 492.973 484.916 458.546 482.431 447.259C479.946 435.972 485.353 430.268 485.353 430.268C484.863 430.519 484.361 430.743 483.847 430.94C484.536 429.395 485.128 427.809 485.62 426.19L500.998 428.059C500.998 428.189 500.998 428.278 500.998 428.278H506.543C506.543 428.278 504.795 407.136 504.795 398.568C504.795 389.999 510.638 359.432 510.638 359.432C510.638 359.432 513.245 329.431 510.622 328.573ZM442.422 303.491C442.422 303.613 442.422 303.726 442.422 303.839C442.422 304.648 442.341 305.546 442.284 306.428L441.977 306.897L441.418 306.42L440.714 307.48C440.591 306.809 440.636 306.118 440.845 305.469C441.054 304.819 441.42 304.232 441.912 303.758C442.076 303.661 442.246 303.574 442.422 303.499V303.491ZM493.511 402.468H493.851L493.301 403.859C493.374 403.406 493.439 402.945 493.511 402.476V402.468ZM437.411 655.229L435.315 654.719L436.481 654.525L437.533 655.212L437.662 655.293L437.411 655.229ZM458.812 652.235C458.116 651.871 457.412 651.426 456.732 651.038C456.951 651.159 457.849 651.62 458.812 652.235Z" fill="url(#paint1_linear)"/>
<path d="M498.619 381.083L485.223 415.971L483.345 414.434L475.883 426.012L498.619 428.844V381.083Z" fill="#5B8AE5"/>
<path opacity="0.1" d="M498.603 381.083L485.199 415.971L481.832 415.065L475.858 426.012L498.603 428.844V381.083Z" fill="black"/>
<path d="M477.623 403.406H498.619L506.324 340.006H477.623V403.406Z" fill="#5B8AE6"/>
<path opacity="0.1" d="M477.623 403.406H498.619L506.324 340.006H477.623V403.406Z" fill="#421212"/>
<path d="M436.61 355.022L441.135 354.213L451.552 352.514C451.552 352.514 482.835 345.475 489.319 344.909C493.366 344.553 497.842 342.886 500.65 341.672C502.342 340.952 503.419 340.394 503.419 340.394L492.152 319.819L474.668 306.873C474.668 306.873 463.612 304.519 458.925 298.086C457.884 296.701 457.206 295.077 456.953 293.363C456.7 291.649 456.88 289.899 457.477 288.272C460.334 279.421 440.431 296.727 440.431 296.727C440.431 296.727 440.625 300.87 440.431 306.153C440.431 307.197 440.333 308.281 440.261 309.389C440.212 310.118 440.147 310.846 440.082 311.59C439.589 316.833 438.593 322.238 436.634 325.466C431.859 333.322 436.61 355.022 436.61 355.022Z" fill="#FFBEC7"/>
<path opacity="0.1" d="M440.414 306.55H440.851C441.661 306.55 442.284 304.867 443.061 304.786C449.285 304.187 454.967 302.884 458.917 298.483C457.878 297.097 457.202 295.473 456.949 293.759C456.696 292.046 456.874 290.296 457.469 288.669C460.326 279.817 440.471 297.115 440.471 297.115C440.471 297.115 440.625 301.258 440.414 306.55Z" fill="black"/>
<path d="M416.189 281.476C416.199 287.906 418.762 294.07 423.315 298.613C427.868 303.156 434.038 305.708 440.471 305.708C441.26 305.708 442.049 305.668 442.834 305.587C447.506 305.129 451.944 303.326 455.611 300.395C459.277 297.465 462.013 293.534 463.487 289.079C464.961 284.624 465.109 279.837 463.914 275.299C462.718 270.762 460.231 266.669 456.753 263.517C453.276 260.365 448.957 258.291 444.323 257.545C439.689 256.8 434.937 257.415 430.646 259.317C426.355 261.219 422.708 264.325 420.149 268.258C417.59 272.192 416.228 276.784 416.229 281.476H416.189Z" fill="#FFBEC7"/>
<path opacity="0.1" d="M416.189 281.476C416.199 287.906 418.762 294.07 423.315 298.613C427.868 303.156 434.038 305.708 440.471 305.708C441.26 305.708 442.049 305.668 442.834 305.587C443.266 305.409 443.648 305.132 443.951 304.778C444.233 304.346 444.418 303.859 444.494 303.349C444.569 302.839 444.533 302.319 444.388 301.824C443.433 297.091 439.135 293.693 437.589 289.114C436.23 285.068 437.249 280.481 439.338 276.743C441.426 273.005 444.51 269.922 447.553 266.896C448.064 266.302 448.707 265.836 449.431 265.537C452.021 264.727 455.906 266.993 457.962 264.679C454.605 261.21 450.289 258.821 445.567 257.816C440.844 256.811 435.929 257.237 431.449 259.038C426.97 260.839 423.129 263.934 420.418 267.928C417.707 271.922 416.249 276.633 416.229 281.46L416.189 281.476Z" fill="black"/>
<path d="M448.541 265.132C447.815 265.429 447.171 265.895 446.663 266.491C443.628 269.517 440.544 272.592 438.456 276.338C436.367 280.084 435.347 284.639 436.707 288.701C438.245 293.289 442.551 296.687 443.498 301.42C443.643 301.913 443.679 302.432 443.603 302.94C443.528 303.449 443.343 303.935 443.061 304.365C442.252 305.376 440.714 305.433 439.662 306.194C438.318 307.173 438.043 309.114 438.447 310.724C438.995 312.292 439.744 313.782 440.673 315.158C442.94 319.163 443.911 324.374 441.483 328.266C440.339 329.854 438.976 331.273 437.436 332.481C434.884 334.746 432.523 337.216 430.378 339.868C428.528 342.074 426.947 344.491 425.667 347.069C424.388 349.763 423.579 352.668 422.292 355.362C419.273 361.665 413.332 366.69 406.427 367.83C399.523 368.971 391.907 365.783 388.515 359.675C385.957 355.063 385.925 349.44 386.937 344.302C387.657 340.629 388.879 336.947 388.458 333.225C388.151 330.572 387.026 328.088 386.03 325.596C381.271 313.459 379.757 299.834 383.448 287.358C384.027 285.147 384.974 283.049 386.249 281.152C387.589 279.495 389.067 277.955 390.668 276.548C395.711 271.621 399.426 265.528 403.335 259.663C407.245 253.797 411.502 247.971 417.29 243.934C423.077 239.896 430.693 237.898 437.314 240.317C444.243 242.85 448.525 249.306 453.332 254.501C455.283 256.62 459.071 259.315 457.978 262.689C456.384 267.446 451.576 264.177 448.541 265.132Z" fill="#493545"/>
<path opacity="0.1" d="M405.149 366.673C412.045 365.532 417.986 360.508 421.005 354.197C422.3 351.511 423.101 348.606 424.388 345.912C425.666 343.334 427.244 340.917 429.091 338.711C431.242 336.058 433.605 333.585 436.157 331.316C437.7 330.11 439.062 328.691 440.204 327.101C442.632 323.209 441.701 317.998 439.443 314.001C438.514 312.621 437.763 311.128 437.209 309.559C436.788 307.941 437.08 306.007 438.423 305.037C439.484 304.276 441.005 304.227 441.831 303.208C442.113 302.778 442.298 302.292 442.373 301.783C442.448 301.275 442.413 300.756 442.268 300.263C441.313 295.522 437.007 292.131 435.469 287.544C434.109 283.498 435.121 278.919 437.217 275.173C439.314 271.427 442.381 268.368 445.392 265.326C445.906 264.734 446.552 264.271 447.278 263.975C450.305 263.02 455.121 266.289 456.675 261.507C457.768 258.133 453.98 255.431 452.029 253.319C447.893 248.845 444.138 243.44 438.747 240.374C445.068 243.141 449.164 249.201 453.721 254.128C455.672 256.24 459.46 258.934 458.367 262.308C456.813 267.09 451.997 263.821 448.97 264.776C448.243 265.075 447.597 265.54 447.084 266.135C444.049 269.161 440.973 272.236 438.876 275.982C436.78 279.728 435.768 284.283 437.128 288.353C438.666 292.932 442.972 296.331 443.927 301.064C444.072 301.557 444.108 302.076 444.032 302.584C443.957 303.093 443.772 303.579 443.49 304.009C442.681 305.02 441.135 305.077 440.082 305.846C438.739 306.817 438.464 308.758 438.868 310.368C439.416 311.938 440.167 313.428 441.102 314.802C443.361 318.807 444.34 324.018 441.863 327.91C440.719 329.498 439.357 330.917 437.816 332.125C435.266 334.394 432.903 336.864 430.75 339.512C428.905 341.719 427.327 344.136 426.047 346.713C424.76 349.415 423.959 352.312 422.664 355.006C419.645 361.309 413.704 366.333 406.808 367.474C402.731 368.113 398.557 367.355 394.966 365.322C398.161 366.737 401.695 367.206 405.149 366.673Z" fill="black"/>
<path d="M430.831 649.452L435.064 652.243L435.704 652.672L435.833 652.761L440.843 656.07L452.531 658.044L462.827 657.34C462.827 657.34 465.789 651.143 461.135 651.28C459.641 651.209 458.184 650.793 456.878 650.067L456.246 649.735C455.574 649.379 454.895 648.982 454.239 648.562C452.863 647.688 451.56 646.741 450.5 645.924C448.962 644.735 447.934 643.828 447.934 643.828L430.831 649.452Z" fill="#FFBEC7"/>
<path opacity="0.1" d="M435.097 652.259L435.736 652.688L435.866 652.777L440.876 656.086L452.564 658.06L462.859 657.357C462.859 657.357 465.822 651.159 461.168 651.296C459.674 651.225 458.217 650.81 456.91 650.083C457.655 650.515 458.228 651.193 458.529 652C458.715 653.619 450.92 656.45 450.92 656.45L439.921 653.546C439.921 653.546 438.051 653.02 435.485 652.356L435.242 652.292L435.097 652.259Z" fill="black"/>
<path d="M416.318 654.962C416.318 654.962 425.335 656.928 431.397 656.369C437.46 655.811 447.885 661.046 447.885 661.046C447.885 661.046 451.414 662.664 462.26 663.417C473.106 664.169 473.139 658.619 473.139 658.619C471.892 651.135 454.757 648.626 454.215 648.562C454.433 648.675 455.299 649.136 456.222 649.735C457.436 650.544 458.755 651.572 458.853 652.405C459.039 654.023 451.244 656.855 451.244 656.855L440.252 653.958C440.252 653.958 438.383 653.424 435.809 652.761L435.566 652.696C431.778 651.65 427.928 650.839 424.04 650.269C419.305 649.767 416.877 653.797 416.383 654.727C416.343 654.897 416.318 654.962 416.318 654.962Z" fill="#05379B"/>
<path d="M274.251 456.175L279.043 459.841C279.043 459.841 280.435 459.776 282.507 459.703H283.171C286.149 459.598 290.245 459.493 293.734 459.485C296.971 459.485 299.659 459.582 300.468 459.865C302.896 460.674 307.089 446.199 307.089 446.199L302.281 445.066L300.662 444.694L299.545 444.435L295.644 443.521L283.802 444.856L275.49 450.212L274.251 456.175Z" fill="#FFBEC7"/>
<path opacity="0.1" d="M274.251 456.175L279.043 459.841C279.043 459.841 280.435 459.776 282.507 459.703C281.559 459.33 280.78 458.626 280.314 457.721C277.214 449.128 292.576 445.471 292.576 445.471L299.731 445.155L301.115 445.099L302.281 445.042L300.662 444.67L299.545 444.411L295.644 443.497L283.802 444.832L275.49 450.188L274.251 456.175Z" fill="black"/>
<path d="M264.806 460.043C267.703 462.729 286.659 460.091 287.469 459.978C286.027 460.143 284.568 460.041 283.163 459.679C280.516 458.934 279.877 457.3 279.877 457.3C276.785 448.707 292.139 445.042 292.139 445.042L299.302 444.735L300.687 444.67L318.073 443.918L318.922 439.128C318.922 439.128 313.257 439.67 304.402 440.374C299.408 440.778 293.386 441.231 286.789 441.66C268.456 442.874 264.126 454.767 264.126 454.767C264.126 454.767 261.884 457.3 264.806 460.043Z" fill="#05379B"/>
<path d="M452.96 415.316L456.084 420.672L463.086 432.647C463.086 432.647 475.793 437.299 479.031 433.771C480.82 431.83 482.738 425.09 484.09 419.434C485.199 414.831 485.935 410.947 485.935 410.947L452.96 415.316Z" fill="#FFBEC7"/>
<path opacity="0.1" d="M452.96 415.316L456.084 420.672C456.283 420.502 456.465 420.312 456.627 420.106C460.156 415.591 475.737 419.151 484.09 419.434C485.199 414.831 485.935 410.947 485.935 410.947L452.96 415.316Z" fill="black"/>
<path opacity="0.1" d="M293.734 459.46C296.971 459.46 299.659 459.557 300.468 459.841C302.896 460.65 307.089 446.175 307.089 446.175L300.735 444.67L318.121 443.918L318.971 439.128C318.971 439.128 313.305 439.67 304.45 440.374C302.605 441.424 300.96 442.794 299.594 444.419L299.327 444.743C295.628 449.282 294.26 455.14 293.734 459.46Z" fill="black"/>
<path opacity="0.1" d="M430.831 649.452L435.687 652.688C442.972 651.377 449.617 649.314 450.402 646.086C450.405 646.032 450.405 645.978 450.402 645.924C448.865 644.735 447.837 643.828 447.837 643.828L430.831 649.452Z" fill="black"/>
<path opacity="0.1" d="M416.407 654.767C422.836 654.455 429.241 653.769 435.59 652.712C431.802 651.666 427.953 650.855 424.064 650.285C419.329 649.808 416.901 653.837 416.407 654.767Z" fill="black"/>
<path d="M294.26 465.051C294.26 468.571 303.973 470.828 303.973 470.828L333.573 497.172C333.573 497.172 352.189 505.482 364.014 517.456C375.84 529.431 386.297 519.188 386.297 519.188C398.835 516.089 434.918 472.414 434.918 472.414C434.918 472.414 435.768 522.286 437.46 525.952C439.152 529.617 436.893 539.617 435.906 543.849C434.918 548.08 435.202 554.553 435.202 554.553C435.202 554.553 421.668 606.254 422.802 610.761C423.935 615.268 415.468 636.401 415.468 636.401V654.015C415.468 654.015 448.589 652.745 450.419 645.277C452.248 637.809 442.106 634.572 442.106 634.572V632.703C448.727 629.321 449.998 606.076 449.998 606.076C449.998 606.076 459.864 577.329 461.273 572.588C462.681 567.847 461.273 560.605 461.273 560.605L462.26 554.407C462.26 554.407 464.373 550.184 464.373 549.343C464.658 547.192 465.495 545.152 466.801 543.42C468.355 541.591 465.109 537.222 465.109 537.222L467.934 529.94V521.906L474.555 492.779C474.555 492.779 481.459 458.797 479.063 447.696C476.668 436.595 481.888 430.923 481.888 430.923C470.557 436.862 464.891 423.642 463.005 417.978C462.519 416.514 462.293 415.551 462.293 415.551C462.293 415.551 446.76 409.822 432.288 411.182C429.352 411.429 426.459 412.043 423.676 413.01C407.609 418.787 405.059 442.736 405.059 442.736L390.822 464.436C383.537 483.733 372.497 485.707 372.497 485.707C372.497 485.707 346.709 468.376 346.005 467.535C345.301 466.694 335.434 462.462 335.434 462.462C334.274 460.416 332.498 458.788 330.359 457.81C326.976 456.402 326.701 451.191 326.701 451.191C326.272 438.934 319.084 437.946 319.084 437.946C294.122 435.746 294.26 461.532 294.26 465.051Z" fill="#05379B"/>
<path d="M437.735 396.157H452.96V348.962H437.735V396.157Z" fill="#5B8AE5"/>
<path opacity="0.1" d="M436.327 394.223H451.552V347.029H436.327V394.223Z" fill="black"/>
<path opacity="0.1" d="M477.623 252.453C477.621 252.489 477.621 252.524 477.623 252.559C477.742 252.816 477.88 253.065 478.035 253.303L482.269 259.501L493.26 260.633L493.382 256.281C489.95 255.981 482.147 255.043 477.623 252.453Z" fill="black"/>
<path d="M478.044 253.303C478.044 253.303 478.61 278.094 472.378 281.476C466.145 284.858 463.766 302.512 463.766 302.512C463.766 302.512 482.528 314.875 486.753 320.312C490.978 325.749 500.561 338.703 498.594 341.802C496.628 344.901 503.418 358.987 503.418 358.987C503.418 358.987 491.01 384.352 493.835 393.932C496.66 403.511 496.935 428.868 496.935 428.868H502.277C502.277 428.868 500.586 408.018 500.586 399.563C500.586 391.108 506.251 360.961 506.251 360.961C506.251 360.961 508.785 331.373 506.251 330.531C503.718 329.69 488.776 317.853 487.635 312.496C486.494 307.14 495.527 257.268 495.527 257.268C495.527 257.268 483.968 256.685 478.044 253.303Z" fill="#05379B"/>
<path opacity="0.1" d="M437.46 344.593C437.969 348.042 439.223 351.338 441.135 354.254L451.552 352.514C451.552 352.514 482.835 345.475 489.319 344.909C493.366 344.553 497.842 342.886 500.65 341.672C498.174 332.892 493.334 324.96 486.656 318.743L482.682 315.061C476.823 309.644 470.048 305.31 462.673 302.261C463.134 302.658 495.956 330.669 488.768 336.162C481.581 341.656 462.244 328.241 462.244 328.241L440.236 309.341L439.427 308.653L438.148 310.627C438.798 310.897 439.433 311.202 440.05 311.542C447.532 315.665 453.081 322.578 455.485 330.774C460.026 345.985 437.46 344.593 437.46 344.593Z" fill="black"/>
<path d="M398.822 212.727C447.673 214.326 488.57 176.02 490.169 127.169C491.768 78.318 453.462 37.4205 404.611 35.8219C355.76 34.2233 314.862 72.529 313.264 121.38C311.665 170.231 349.971 211.129 398.822 212.727Z" fill="#05379B"/>
<path d="M500.842 229.073L447.83 213.295L394.817 197.516L434.953 159.345L475.091 121.173L487.966 175.123L500.842 229.073Z" fill="#05379B"/>
<path d="M400.719 154.758C418.106 155.327 432.663 141.693 433.232 124.305C433.801 106.918 420.167 92.3609 402.779 91.7919C385.392 91.2229 370.835 104.857 370.266 122.245C369.697 139.632 383.331 154.189 400.719 154.758Z" fill="white"/>
<path d="M477.631 252.559C477.75 252.816 477.888 253.065 478.044 253.303L482.277 259.501L493.269 260.633L493.39 256.281L495.235 190.744C495.235 190.744 502.852 146.786 488.477 149.326C474.102 151.867 483.119 190.744 483.119 190.744C483.119 190.744 481.5 210.47 480.326 216.384C479.217 222.096 474.199 245.333 477.631 252.559Z" fill="#FFBEC7"/>
<path opacity="0.1" d="M430.693 415.033C430.693 415.033 451.552 426.587 456.594 420.106C457.711 418.682 460.026 418.059 462.94 417.889C462.454 416.425 462.228 415.462 462.228 415.462C462.228 415.462 446.695 409.733 432.223 411.093C431.292 413.496 430.693 415.033 430.693 415.033Z" fill="black"/>
<path d="M440.285 308.669L463.086 328.241C463.086 328.241 482.366 341.672 489.602 336.138C496.838 330.604 463.507 302.229 463.507 302.229C470.887 305.273 477.665 309.607 483.523 315.029L487.498 318.71C497.939 328.379 500.294 328.379 500.642 342.603C500.731 346.098 499.541 351.131 498.627 352.045C495.244 355.395 492.864 379.441 493.39 382.256C493.916 385.072 487.069 409.393 489.343 416.157C491.617 422.922 461.726 412.775 456.651 419.256C451.576 425.737 430.75 414.183 430.75 414.183C430.75 414.183 442.308 384.595 445.125 382.629C447.942 380.663 451.325 365.435 445.125 358.356C438.925 351.276 438.334 344.593 438.334 344.593C438.334 344.593 460.9 345.993 456.376 330.79C455.103 326.384 452.896 322.304 449.904 318.827C446.912 315.351 443.206 312.56 439.038 310.644L440.285 308.669Z" fill="#E8E8F0"/>
<path opacity="0.1" d="M470.71 358.542C470.71 358.542 461.969 375.031 450.645 379.311C450.289 379.441 449.933 379.562 449.569 379.675C437.735 383.26 471.56 363.615 470.71 358.542Z" fill="black"/>
<path d="M348.385 212.727C348.385 212.727 352.61 223.439 355.993 227.096C359.377 230.754 384.46 267.389 384.46 267.389L386.589 271.783L388.41 275.561L404.477 273.87L405.602 267.397L404.987 266.645C403.368 264.711 398.973 259.517 396.018 257.251C392.36 254.436 385.027 245.115 385.027 245.115C385.027 245.115 362.193 221.441 360.51 214.968C358.826 208.495 335.985 169.602 330.91 176.366C325.835 183.13 348.385 212.727 348.385 212.727Z" fill="#FFBEC7"/>
<path opacity="0.1" d="M386.589 271.783L388.41 275.561L404.477 273.87L405.602 267.397L404.987 266.645C403.254 267.495 390.409 273.652 386.589 271.783Z" fill="black"/>
<path opacity="0.1" d="M445.91 314.163C445.91 314.163 441.968 307.965 439.71 309.656C437.452 311.347 436.578 304.583 435.323 305.708C434.069 306.833 430.264 309.98 428.718 305.579C427.488 302.083 414.149 279.995 408.71 271.095L406.452 267.389C406.452 267.389 391.227 275.003 387.568 272.462V277.819L390.668 278.102L407.293 309.09C407.293 309.09 412.522 317.383 412.15 320.288C411.777 323.193 418.835 335.863 419.961 336.704C421.086 337.546 433.211 351.64 433.211 351.64C433.211 351.64 439.411 382.07 434.02 390.525C428.629 398.98 419.362 405.178 419.362 405.178C419.362 405.178 416.569 413.342 416.933 414.191C417.298 415.041 413.696 418.698 415.371 419.855C417.047 421.012 419.321 428.876 419.321 428.876C419.321 428.876 427.213 416.198 431.462 414.224C435.712 412.25 441.175 386.326 441.175 386.326C441.175 386.326 442.729 371.042 442.859 361.18C442.988 351.317 442.527 314.163 445.91 314.163Z" fill="black"/>
<path d="M445.068 314.163C445.068 314.163 441.118 307.965 438.868 309.656C436.618 311.347 435.736 304.583 434.481 305.708C433.227 306.833 429.423 309.98 427.877 305.579C426.638 302.083 413.307 279.995 407.868 271.095C406.476 268.805 405.602 267.389 405.602 267.389C405.602 267.389 390.385 275.003 386.718 272.462V277.819L389.818 278.102L406.452 309.09C406.452 309.09 411.672 317.383 411.308 320.288C410.944 323.193 418.002 335.863 419.127 336.704C420.252 337.546 432.377 351.64 432.377 351.64C432.377 351.64 438.577 382.07 433.186 390.525C430.351 394.764 426.904 398.56 422.955 401.788C419.659 404.526 417.341 408.259 416.351 412.428C416.16 412.995 416.094 413.596 416.156 414.191C416.569 415 412.919 418.698 414.594 419.855C416.27 421.012 418.536 428.876 418.536 428.876C418.536 428.876 426.428 416.198 430.677 414.224C434.927 412.25 440.39 386.326 440.39 386.326C440.39 386.326 441.936 371.042 442.065 361.18C442.195 351.317 441.685 314.163 445.068 314.163Z" fill="#05379B"/>
<path opacity="0.1" d="M406.452 442.364C406.452 442.364 418.293 444.621 423.085 448.028C427.877 451.434 405.043 442.671 405.043 442.671L406.452 442.364Z" fill="black"/>
<path opacity="0.1" d="M434.918 472.373C434.918 472.373 447.319 482.657 445.068 491.961C442.818 501.266 437.136 524.649 437.136 524.649L434.918 472.373Z" fill="black"/>
<path opacity="0.1" d="M326.895 452.583C326.895 452.583 309.485 454.484 310.61 456.734C311.735 458.983 326.895 454.662 326.895 454.662V452.583Z" fill="black"/>
<path opacity="0.1" d="M460.569 538.169C460.569 538.169 461.702 539.577 455.218 538.169C448.735 536.761 453.527 532.424 453.527 532.424L460.569 538.169Z" fill="black"/>
<path opacity="0.1" d="M458.318 557.611C458.318 557.611 449.415 559.019 444.712 557.611C440.01 556.204 458.318 557.611 458.318 557.611Z" fill="black"/>
<path opacity="0.1" d="M440.131 633.682C440.131 633.682 438.585 631.991 430.831 635.098C423.077 638.205 419.977 638.335 417.727 637.348C415.477 636.36 440.131 633.682 440.131 633.682Z" fill="black"/>
<path opacity="0.1" d="M448.735 450.188L437.735 465.472C437.735 465.472 443.66 452.089 448.735 450.188Z" fill="black"/>
<path opacity="0.1" d="M427.31 309.632C427.31 309.632 426.841 314.705 419.75 316.679C412.66 318.654 411.316 320.264 411.316 320.264" fill="black"/>
<path opacity="0.1" d="M408.945 272.867C408.945 272.867 399.596 279.518 389.818 278.102L408.945 272.867Z" fill="black"/>
<path opacity="0.1" d="M416.067 414.895C416.067 414.895 418.803 416.611 425.359 409.11L416.067 414.895Z" fill="black"/>
<path opacity="0.1" d="M484.179 335.418C484.446 334.051 483.491 332.772 482.56 331.704L480.723 329.512C480.366 329.06 479.964 328.646 479.525 328.274C478.44 327.424 476.999 327.165 475.85 326.405" fill="black"/>
</g>
<defs>
<linearGradient id="paint0_linear" x1="533.48" y1="660.917" x2="533.48" y2="554.909" gradientUnits="userSpaceOnUse">
<stop stop-color="#808080" stop-opacity="0.25"/>
<stop offset="0.54" stop-color="#808080" stop-opacity="0.12"/>
<stop offset="1" stop-color="#808080" stop-opacity="0.1"/>
</linearGradient>
<linearGradient id="paint1_linear" x1="133701" y1="443657" x2="133701" y2="107682" gradientUnits="userSpaceOnUse">
<stop stop-color="#808080" stop-opacity="0.25"/>
<stop offset="0.54" stop-color="#808080" stop-opacity="0.12"/>
<stop offset="1" stop-color="#808080" stop-opacity="0.1"/>
</linearGradient>
<clipPath id="clip0">
<rect width="888" height="684" fill="white"/>
</clipPath>
</defs>
</svg>
